<?xml version="1.0" encoding="UTF-8"?>
<svg id="Layer_1" xmlns="http://www.w3.org/2000/svg" version="1.1" viewBox="0 0 250 250">
  <!-- Generator: Adobe Illustrator 29.0.0, SVG Export Plug-In . SVG Version: 2.1.0 Build 186)  -->
  <defs>
    <style>
      .st0 {
        fill: #353531;
      }
    </style>
  </defs>
  <path class="st0" d="M65.2,25.1h118.9c22.1,1,39.8,18.7,41,40.7v118.7c-1.2,21.8-18.9,39.4-40.6,40.6h-118.9c-21.8-1.2-39.5-18.9-40.6-40.8v-118.3c1-21.8,18.5-39.6,40.3-40.9ZM65.6,34.6c-16.9,1.1-30.3,14.9-31.1,31.8v117.5c.9,17,14.7,30.7,31.7,31.6h117.8c17.1-.9,30.7-14.7,31.7-31.6v-117.9c-1-16.8-14.6-30.5-31.5-31.4h-118.5Z"/>
  <path class="st0" d="M136,162.9c-.1.2,0,.7,0,1,.7,1.7,2.9,4.1,3.9,6,3.5,6.9,0,14.9-8.1,15.6-5.8.5-8.5-1.6-11.6-6.1-5.1-7.3-9.4-15.4-14.4-22.7-.9-2.3,0-4.8,2.3-5.7l46.3-19c17.7-9.4,14.1-33.9-2.1-43.1-9.9-5.6-19.8-4.4-30-.8-9.3,3.3-19.4,7.7-28.5,11.6-5,2.2-13.1,5.4-8.9,12.5s9.9,4.5,15,2.7c9.9-3.4,19.7-8.9,29.6-12.3,7.9-2.7,16,2.3,14.9,11.1s-2.7,5-5.6,6.3c-15.1,5-31.5,16.2-47.7,15.6-33-1.1-39.5-40.6-10.6-53.8,11.4-4.5,22.7-10,34.2-14.2,16.7-6.1,38.1-3.8,52.7,6.5,27.9,19.9,27.3,61.7-4.1,77.4l-27.5,11.3Z"/>
</svg>