<?xml version="1.0" encoding="UTF-8"?>
<svg id="Layer_1" xmlns="http://www.w3.org/2000/svg" version="1.1" viewBox="0 0 250 250">
  <!-- Generator: Adobe Illustrator 29.0.0, SVG Export Plug-In . SVG Version: 2.1.0 Build 186)  -->
  <defs>
    <style>
      .st0 {
        fill: #353531;
      }
    </style>
  </defs>
  <path class="st0" d="M110.9,103.9s0,0,0,0c-.4-1-1.9-1-2.2,0l-8.7,28.6c0,.3,0,.6,0,.8.2.3.5.7.6.7h17.6c.6,0,1.1-.5,1.2-1.1,0-.8,0-1.7-.1-2.5-1.2-6.1-6-20.6-8.3-26.6Z"/>
  <path class="st0" d="M227.4,58c-2.4-18.5-15.8-31.9-34.6-33H56.8c-18.6,1.1-32.1,15.1-34.2,33.4v132.6c1.1,7.1,3.3,14.1,7.7,19.8,7.1,9.1,17.7,13.1,29,13.6,43.9,2,89.4-1.6,133.5,0,19.1-1.1,32.7-14.9,34.6-33.8V58ZM144,171.5c-2.9,0-5.9.4-8.9,0-5.9-1-7.1-14.6-10.1-19.5-.2-.3-.5-.5-.9-.5-9.4-.6-19.1-.4-28.5,0-.5,0-.9.3-1,.7l-6.3,16.4c-.7,1.9-2.5,3.1-4.5,3.1h-12.8c-.8,0-1.4-.8-1.1-1.6l.9-2.3,26.5-75.8c1.4-3.2-1.1-7.1,3.4-7.6,4.1-.5,13.3-.4,17.5,0,1.6.1,2.7.3,3.6,1.9l29.5,82.8c1.2,3.9-4.5,2.5-7.2,2.6ZM177.8,171.8c-1,.5-12.8.4-14.8.3-.8,0-2.1,0-2.6-.6-.6-.6-.6-1.8-.6-2.6v-61.7c.4-1,.7-1.7,1.8-1.9,1.5-.3,14.7-.2,15.9.1.5.1.8.5,1.1.9v64.5c0,.4-.3.9-.7,1.1ZM180,89.8c-1,7-6.2,9.9-13,8.9-10.6-1.5-11.3-19.5,1.1-20.8,7.3-.8,13,4.5,11.9,11.8Z"/>
</svg>