<?xml version="1.0" encoding="UTF-8"?>
<svg id="Layer_1" xmlns="http://www.w3.org/2000/svg" version="1.1" viewBox="0 0 250 250">
  <!-- Generator: Adobe Illustrator 29.0.0, SVG Export Plug-In . SVG Version: 2.1.0 Build 186)  -->
  <defs>
    <style>
      .st0 {
        fill: #353531;
      }
    </style>
  </defs>
  <path class="st0" d="M227.4,58c-2.4-18.5-15.8-31.9-34.6-33H56.8c-18.6,1.1-32.1,15.1-34.2,33.4v132.6c1.1,7.1,3.3,14.1,7.7,19.8,7.1,9.1,17.7,13.1,29,13.6,43.9,2,89.4-1.6,133.5,0,19.1-1.1,32.7-14.9,34.6-33.8V58ZM96.5,165s-.6.6-.6.6h-16.8s-.6-.6-.6-.6v-88.1s.6-.6.6-.6h16.4c.1,0,.6.6,1,.4v88.3ZM173.3,161.8c-.9,0-2.1.3-2.9.6-12.9,5.2-32.7,7-45.1-.7-18.9-11.7-19.2-42.1-2.8-55.9,6.2-5.2,14.1-8,22-9.1,1.6-.2,10.7.8,10.7-1.4v-25.8c.4.1.9-.4,1-.4h16.4s.6.6.6.6v92.1Z"/>
  <path class="st0" d="M150.8,112.3c-6.4-.4-14.9,3.6-18.2,9.1-4.4,7.2-2.8,21.1,4.4,26.1,2.6,1.8,5.2,2.4,8.3,2.6,1.6.1,8.2.5,8.6-1v-34.4c0-2.1-1.4-2.2-3.1-2.3Z"/>
</svg>