<?xml version="1.0" encoding="UTF-8"?>
<svg id="Layer_1" xmlns="http://www.w3.org/2000/svg" version="1.1" viewBox="0 0 250 250">
  <!-- Generator: Adobe Illustrator 29.0.0, SVG Export Plug-In . SVG Version: 2.1.0 Build 186)  -->
  <defs>
    <style>
      .st0 {
        fill: #353531;
      }
    </style>
  </defs>
  <path class="st0" d="M103.4,98.5c-.5-.3-4.4-1.9-4.6-1.9h-15.7c.2.5-.5,1.1-.5,1.2v25.9c0,1.6,7.5,1.3,8.8,1.3,8.9-.4,18.3-3.4,18.7-13.7.2-5.4-1.8-10.1-6.6-12.8Z"/>
  <path class="st0" d="M227.4,58c-2.4-18.5-15.8-31.9-34.6-33H56.8c-18.6,1.1-32.1,15.1-34.2,33.4v132.6c1.1,7.1,3.3,14.1,7.7,19.8,7.1,9.1,17.7,13.1,29,13.6,43.9,2,89.4-1.6,133.5,0,19.1-1.1,32.7-14.9,34.6-33.8V58ZM94.3,141.5c-1.6,0-10.8-1.5-10.8.7v23.9c-.2,1.3-.9,3-2.3,3.2-2.2.4-12,.3-14.5,0-3-.4-3.2-2.4-3.3-5.2-.2-3.7.5-8.3.6-11.9.2-19.1.3-38.3,0-57.4,0-4.1-2.9-14.5,3.2-15.2,7.6-.9,23.2-.5,31,0,43.1,2.9,40.9,61.2-4,61.9ZM186.4,152.2c-1.9,17.2-23.4,20.2-37.2,18.1-1.8-.3-11.8-2.7-11.8-4.2,0-2.9-.6-13.1,0-15,0-.2.6-.6.8-.7.7-.2,8.5,3.3,10.6,3.8,4.2,1,15.6,2.6,18.3-1.4,1.5-2.2.7-4.2-1.3-5.7-3.6-2.8-12.4-5.1-17.1-7.9-9.6-5.6-14.6-15.2-9.9-26.1,4.6-10.6,18.8-13.3,29.2-12.7,2,.1,14.2,1.8,14.2,3.7v14.5c0,.3-.8.7-1.2.7-1.4,0-6.6-2.4-8.7-2.9-3.4-.8-12.2-1.5-15.2,0-1.9,1-2.3,3.9-1.5,5.8,1.1,2.4,13.6,6.6,16.7,8.2,9.1,4.7,15.1,10.5,13.9,21.5Z"/>
</svg>